<?xml version="1.0" standalone="no"?>
<!DOCTYPE svg PUBLIC "-//W3C//DTD SVG 20010904//EN"
 "http://www.w3.org/TR/2001/REC-SVG-20010904/DTD/svg10.dtd">
<svg version="1.0" xmlns="http://www.w3.org/2000/svg"
 width="119.000000pt" height="116.000000pt" viewBox="0 0 119.000000 116.000000"
 preserveAspectRatio="xMidYMid meet">

<g transform="translate(0.000000,116.000000) scale(0.100000,-0.100000)"
fill="#000000" stroke="none">
<path d="M0 580 l0 -580 595 0 595 0 0 580 0 580 -595 0 -595 0 0 -580z m632
513 c43 -39 9 -99 -51 -89 -20 3 -45 6 -56 7 l-20 0 20 9 c17 7 17 9 3 9 -11
1 -18 9 -18 20 0 11 -6 22 -12 24 -7 3 -4 6 7 6 11 1 31 8 45 15 34 19 60 19
82 -1z m384 -219 c43 -33 47 -75 9 -100 -34 -22 -72 -6 -80 33 -4 15 -11 36
-16 46 -7 13 -6 18 3 16 7 -1 21 1 31 6 15 6 16 10 5 16 -11 7 -11 9 0 9 7 0
29 -12 48 -26z m-389 4 c14 -19 14 -66 1 -74 -7 -5 -36 -8 -65 -9 -28 0 -48 2
-44 5 12 7 -6 50 -21 51 -20 0 74 37 98 38 12 1 26 -5 31 -11z m-389 -26 c20
-26 14 -48 -22 -87 -24 -25 -37 -32 -42 -24 -5 8 -3 10 7 5 8 -4 5 0 -5 8 -24
19 -40 21 -30 4 5 -9 4 -10 -4 -3 -8 7 -9 26 -4 55 11 64 63 86 100 42z m633
-377 c-5 -40 -11 -52 -32 -64 -24 -13 -29 -13 -53 2 -57 38 -15 117 54 103 19
-3 30 -1 30 6 0 6 2 9 4 7 2 -2 0 -26 -3 -54z m-453 22 c6 -5 12 -19 12 -30 0
-11 8 -29 18 -40 9 -11 11 -17 4 -13 -7 4 -15 1 -18 -9 -6 -14 -9 -14 -16 -3
-7 9 -8 5 -5 -14 l4 -27 -43 31 c-24 17 -46 39 -49 50 -19 57 43 94 93 55z
m589 -66 c-4 -16 -1 -17 30 -11 30 7 34 6 28 -8 -4 -10 -9 -32 -12 -50 -7 -39
-42 -67 -72 -57 -25 8 -38 52 -22 74 6 9 19 28 29 43 20 33 26 35 19 9z m-777
-51 c4 -8 15 -30 24 -47 9 -18 13 -33 7 -33 -6 0 -19 -9 -29 -20 -19 -21 -19
-21 -56 20 -39 43 -41 51 -25 81 12 24 68 23 79 -1z m427 -214 c24 -1 29 -4
21 -13 -6 -7 -7 -13 -3 -13 4 0 2 -6 -4 -14 -10 -11 -6 -16 16 -24 l28 -10
-27 -1 c-15 -1 -43 -8 -62 -18 -32 -15 -36 -15 -60 1 -51 33 -17 119 39 100
11 -4 34 -7 52 -8z"/>
<path d="M577 1074 c-4 -4 -7 -16 -7 -26 0 -13 7 -18 26 -18 21 0 25 4 22 22
-3 23 -27 35 -41 22z"/>
<path d="M983 843 c-18 -7 -16 -42 3 -50 8 -3 23 1 31 10 13 13 14 19 3 31
-13 17 -17 18 -37 9z"/>
<path d="M174 835 c-9 -23 4 -47 23 -43 22 4 30 38 11 49 -19 13 -28 11 -34
-6z"/>
<path d="M794 475 c-9 -23 4 -47 23 -43 22 4 30 38 11 49 -19 13 -28 11 -34
-6z"/>
<path d="M362 481 c-20 -12 -10 -46 13 -46 14 0 20 7 20 24 0 27 -13 35 -33
22z"/>
<path d="M574 136 c-9 -24 4 -48 23 -44 24 4 24 52 0 56 -9 2 -20 -4 -23 -12z"/>
</g>
</svg>
