<svg width="205" height="200" viewBox="0 0 205 200" fill="none" xmlns="http://www.w3.org/2000/svg">
<path d="M129.771 45.2138H74.6236C72.007 45.217 69.8866 47.3395 69.8834 49.9588V172.648L69.2514 172.841L55.7228 176.988C54.3878 177.396 52.9753 176.644 52.5659 175.309L12.3247 43.7302C11.9169 42.3937 12.668 40.9793 14.0028 40.57L34.8502 34.1801L95.2878 15.662L116.135 9.27209C116.776 9.07469 117.469 9.1405 118.061 9.455C118.653 9.76951 119.096 10.3069 119.292 10.9487L129.578 44.5811L129.771 45.2138Z" fill="#F4F4F4"/>
<path d="M141.792 44.4548L129.41 3.81406C128.994 2.44648 128.054 1.30111 126.797 0.630123C125.54 -0.0408648 124.069 -0.182462 122.709 0.236507L93.4333 9.24064L33.0709 27.8103L3.79556 36.8176C0.963834 37.6913 -0.629176 40.7039 0.235083 43.5509L42.5558 182.444C43.2479 184.71 45.3294 186.257 47.6881 186.26C48.2199 186.26 48.7487 186.18 49.2567 186.022L69.325 179.85L69.9563 179.653V178.99L69.325 179.184L49.0706 185.416C46.5711 186.181 43.9266 184.77 43.1587 182.26L0.841229 43.3637C0.472187 42.1575 0.595896 40.8533 1.18507 39.7389C1.77423 38.6245 2.78045 37.7914 3.98173 37.4234L33.2571 28.416L93.6196 9.84959L122.895 0.842286C123.346 0.703941 123.815 0.633403 124.287 0.632961C126.365 0.637649 128.197 2.00193 128.807 3.99801L141.132 44.4548L141.328 45.0891H141.985L141.792 44.4548Z" fill="#BDC3D2"/>
<path d="M39.0082 41.2214C37.7524 41.2205 36.6438 40.3901 36.2748 39.1739L32.1863 25.6439C31.9644 24.91 32.0395 24.1167 32.395 23.4388C32.7504 22.7609 33.3572 22.2538 34.0817 22.0292L89.9283 4.70704C91.4368 4.24068 93.0331 5.09976 93.4963 6.62717L97.5848 20.1573C98.0448 21.6855 97.197 23.3027 95.6896 23.7722L39.8429 41.0943C39.5724 41.1784 39.2911 41.2212 39.0082 41.2214Z" fill="#BDC3D2"/>
<circle cx="59.542" cy="7.63373" r="6.10687" fill="#BDC3D2"/>
<circle cx="60.3054" cy="8.39693" r="3.81679" fill="white"/>
<path d="M189.698 183.206H83.5846C82.1115 183.205 80.9178 182.008 80.9161 180.531V53.0572C80.9177 51.5803 82.1115 50.3835 83.5846 50.3818H189.698C191.171 50.3835 192.365 51.5803 192.366 53.0572V180.531C192.365 182.008 191.171 183.204 189.698 183.206Z" fill="#F4F4F4"/>
<path fill-rule="evenodd" clip-rule="evenodd" d="M141.124 44.9076L140.927 44.2748H199.183C202.162 44.279 204.576 46.6856 204.58 49.6556V194.619C204.576 197.589 202.162 199.996 199.183 200H74.0993C71.1204 199.996 68.7065 197.589 68.7023 194.619V178.73L69.3372 178.537V194.619C69.3404 197.24 71.4706 199.364 74.0993 199.367H199.183C201.812 199.364 203.942 197.24 203.945 194.619V49.6553C203.942 47.0346 201.812 44.9108 199.183 44.9076H141.124ZM141.124 44.9076H74.0993C71.4706 44.9108 69.3404 47.0346 69.3372 49.6553V178.537L69.3373 178.537V49.6556C69.3405 47.0348 71.4707 44.9111 74.0993 44.9079H141.124L141.124 44.9076Z" fill="#BDC3D2"/>
<path d="M166.609 58.0152H108.2C106.623 58.0134 105.345 56.7245 105.344 55.1341V41.0489C105.345 39.4585 106.623 38.1696 108.2 38.1678H166.609C168.186 38.1696 169.464 39.4585 169.466 41.0489V55.1341C169.464 56.7245 168.186 58.0134 166.609 58.0152Z" fill="#BDC3D2"/>
<circle cx="137.405" cy="33.5876" r="6.10687" fill="#BDC3D2"/>
<circle cx="136.641" cy="32.8244" r="3.81679" fill="white"/>
</svg>
